<svg width="260" height="94" viewBox="0 0 260 94" fill="none" xmlns="http://www.w3.org/2000/svg">
<path fill-rule="evenodd" clip-rule="evenodd" d="M0 49.7319C0 48.1443 1.287 46.8573 2.87455 46.8573H50.7838C52.3713 46.8573 53.6583 48.1443 53.6583 49.7319V56.3434C53.6583 57.9309 52.3713 59.2179 50.7838 59.2179H37.8306C37.4907 59.2179 37.1607 59.2561 36.8444 59.3282L36.8422 59.3137H25.2002L33.4407 63.2138C33.4105 63.5412 33.4167 63.8779 33.4631 64.2195L36.071 83.3972C36.8338 89.0064 32.4733 94 26.8125 94C21.1467 94 16.7847 88.9979 17.5557 83.3847L20.1875 64.2254C20.5512 61.5775 18.4935 59.2179 15.8208 59.2179H2.87455C1.287 59.2179 0 57.9309 0 56.3434V49.7319ZM26.8292 88.4425C28.9989 88.4425 30.7577 86.6837 30.7577 84.514C30.7577 82.3443 28.9989 80.5854 26.8292 80.5854C24.6594 80.5854 22.9006 82.3443 22.9006 84.514C22.9006 86.6837 24.6594 88.4425 26.8292 88.4425Z" fill="#272727"/>
<path d="M0 19.3913C0 17.7845 0.805474 16.2847 2.14487 15.3973L24.1831 0.796967C25.7871 -0.265644 27.8712 -0.265667 29.4752 0.796967L34.7821 4.31277V9.05703L36.6985 14.0396V3.64328C36.6985 2.32031 37.771 1.24782 39.0939 1.24782H44.843C46.166 1.24782 47.2385 2.32031 47.2385 3.64328V12.5651L51.5134 15.3973C52.8528 16.2847 53.6583 17.7845 53.6583 19.3913V36.3174C53.6583 38.9633 51.5133 41.1083 48.8674 41.1083H4.79092C2.14506 41.1083 0 38.9633 0 36.3174V19.3913Z" fill="url(#paint0_linear_7376_16)"/>
<path d="M85.5251 6.1377C74.2224 6.1377 69.9219 10.1074 69.9219 20.6933V30.1765C69.9219 40.7624 74.2224 44.7322 85.5251 44.7322H110.446C111.383 44.7322 111.88 44.2359 111.88 43.2986V36.8479C111.88 35.9106 111.383 35.4143 110.446 35.4143H85.911C81.1143 35.4143 79.9564 34.1462 79.9564 29.1841V21.6857C79.9564 16.7236 81.1143 15.4555 85.911 15.4555H110.446C111.383 15.4555 111.88 14.9593 111.88 14.022V7.5712C111.88 6.63391 111.383 6.1377 110.446 6.1377H85.5251Z" fill="#272727"/>
<path d="M119.017 6.1377C118.079 6.1377 117.583 6.63391 117.583 7.5712V38.116C117.583 43.3538 119.458 44.7322 123.262 44.7322H128.886C133.462 44.7322 134.62 44.0705 136.274 40.9278L149.175 16.062C149.286 15.7863 149.561 15.676 149.837 15.676H150.278C150.554 15.676 150.664 15.8414 150.664 16.2274V43.2986C150.664 44.2911 151.16 44.7322 152.097 44.7322H159.265C160.202 44.7322 160.699 44.2911 160.699 43.2986V12.7539C160.699 7.5712 158.879 6.1377 155.075 6.1377H149.286C144.709 6.1377 143.552 6.79932 141.953 9.94201L129.106 34.8079C128.996 35.0835 128.775 35.1938 128.445 35.1938H128.004C127.728 35.1938 127.618 35.0284 127.618 34.6425V7.5712C127.618 6.63391 127.121 6.1377 126.184 6.1377H119.017Z" fill="#272727"/>
<path d="M166.827 6.1377C165.835 6.1377 165.394 6.63391 165.394 7.5712V14.022C165.394 14.9593 165.835 15.4555 166.827 15.4555H183.368V43.2986C183.368 44.2359 183.864 44.7322 184.856 44.7322H191.969C192.906 44.7322 193.402 44.2359 193.402 43.2986V15.4555H209.998C210.935 15.4555 211.431 14.9593 211.431 14.022V7.5712C211.431 6.63391 210.935 6.1377 209.998 6.1377H166.827Z" fill="#272727"/>
<path d="M217.495 6.1377C216.558 6.1377 216.061 6.63391 216.061 7.5712V38.116C216.061 43.3538 217.936 44.7322 221.74 44.7322H227.364C231.94 44.7322 233.098 44.0705 234.752 40.9278L247.654 16.062C247.764 15.7863 248.04 15.676 248.315 15.676H248.756C249.032 15.676 249.142 15.8414 249.142 16.2274V43.2986C249.142 44.2911 249.639 44.7322 250.576 44.7322H257.743C258.681 44.7322 259.177 44.2911 259.177 43.2986V12.7539C259.177 7.5712 257.357 6.1377 253.553 6.1377H247.764C243.188 6.1377 242.03 6.79932 240.431 9.94201L227.585 34.8079C227.474 35.0835 227.254 35.1938 226.923 35.1938H226.482C226.206 35.1938 226.096 35.0284 226.096 34.6425V7.5712C226.096 6.63391 225.6 6.1377 224.662 6.1377H217.495Z" fill="#272727"/>
<path d="M75.8213 51.5633C71.8516 51.5633 70.3078 53.1071 70.3078 56.5806V88.7243C70.3078 89.6616 70.804 90.1578 71.7413 90.1578H78.9089C79.9013 90.1578 80.3975 89.6616 80.3975 88.7243V61.8184C80.3975 61.1568 80.6732 60.8811 81.3348 60.8811H102.451C103.113 60.8811 103.389 61.1568 103.389 61.8184V88.7243C103.389 89.6616 103.885 90.1578 104.877 90.1578H112.045C112.982 90.1578 113.478 89.6616 113.478 88.7243V56.5806C113.478 53.1071 111.935 51.5633 107.965 51.5633H75.8213Z" fill="#272727"/>
<path d="M122.198 51.5633C121.096 51.5633 120.544 52.1147 120.544 53.2174V88.7243C120.544 89.6616 121.041 90.1578 121.978 90.1578H129.145C130.083 90.1578 130.579 89.6616 130.579 88.7243V78.8551H152.026C160.683 78.8551 164.101 74.8854 164.101 67.4422V62.9763C164.101 55.5331 160.683 51.5633 152.026 51.5633H122.198ZM130.579 61.2119C130.579 60.7709 130.799 60.5503 131.241 60.5503H150.042C153.074 60.5503 154.066 61.7633 154.066 64.3546V66.3946C154.066 69.0411 153.074 70.2541 150.042 70.2541H130.579V61.2119Z" fill="#272727"/>
<path d="M184.434 51.5633C173.131 51.5633 168.831 55.533 168.831 66.1189V75.6022C168.831 86.1881 173.131 90.1578 184.434 90.1578H201.636C212.939 90.1578 217.239 86.1881 217.239 75.6022V66.1189C217.239 55.533 212.939 51.5633 201.636 51.5633H184.434ZM178.865 66.8908C178.865 61.8736 180.023 60.6606 184.82 60.6606H201.25C206.047 60.6606 207.205 61.8736 207.205 66.8908V74.8303C207.205 79.8476 206.047 81.1157 201.25 81.1157H184.82C180.023 81.1157 178.865 79.8476 178.865 74.8303V66.8908Z" fill="#272727"/>
<defs>
<linearGradient id="paint0_linear_7376_16" x1="1.92696" y1="40.1696" x2="46.5434" y2="1.63049" gradientUnits="userSpaceOnUse">
<stop offset="0" stop-color="#A1FF95"/>
<stop offset="1" stop-color="#00A3FF"/>
</linearGradient>
</defs>
</svg>
